<svg xmlns="http://www.w3.org/2000/svg" viewBox="0 0 198.35 54.63"><defs><style>.cls-1{fill:#282762;}.cls-2{fill:#f0b23a;}</style></defs><g id="Layer_2" data-name="Layer 2"><g id="Layer_1-2" data-name="Layer 1"><path class="cls-1" d="M43,14.87a15.08,15.08,0,0,1,8,2A13,13,0,0,1,56.15,22,15,15,0,0,1,58,29.44v1.67a4.56,4.56,0,0,1-.3,1.52H36c0,5.16.91,8.95,2.73,11.23a9.81,9.81,0,0,0,8,3.49,13.19,13.19,0,0,0,5.92-1.22,17.1,17.1,0,0,0,4.25-3.34l.76.61a17.85,17.85,0,0,1-5.92,6.22,16.67,16.67,0,0,1-9,2.28,19.3,19.3,0,0,1-9.11-2.12,16.8,16.8,0,0,1-6.22-6.38,20.12,20.12,0,0,1-2.28-9.86,18.88,18.88,0,0,1,2.58-10,18,18,0,0,1,6.68-6.37A15.23,15.23,0,0,1,43,14.87Zm-.31,1.37A6.16,6.16,0,0,0,39,17.45,7.55,7.55,0,0,0,36.73,22a34.89,34.89,0,0,0-.91,9.11H48.11c.45-5.31.3-8.95-.61-11.38A4.75,4.75,0,0,0,42.64,16.24Z"/><path class="cls-1" d="M79.37,51.75a19.41,19.41,0,0,1-9-2.13A14.84,14.84,0,0,1,64,43.4a20.43,20.43,0,0,1-2.27-10,18.88,18.88,0,0,1,2.58-10A17.19,17.19,0,0,1,71.18,17a20,20,0,0,1,9.4-2.28,17.13,17.13,0,0,1,7.14,1.37A11.23,11.23,0,0,1,92,19.73a7.78,7.78,0,0,1,1.51,4.55,4.34,4.34,0,0,1-1.21,3.19,4.27,4.27,0,0,1-3.19,1.06A3.93,3.93,0,0,1,85.74,27a6.55,6.55,0,0,1-1.51-3.94V20.34a5.83,5.83,0,0,0,0-2.28,2.56,2.56,0,0,0-.91-1.67,2.76,2.76,0,0,0-1.67-.46,7.68,7.68,0,0,0-6.83,3.8c-1.67,2.58-2.43,6.68-2.43,12.14,0,4.85.91,8.65,2.73,11.23s4.55,3.79,8.35,3.79a11.18,11.18,0,0,0,5.46-1.21A14.75,14.75,0,0,0,93,42l.76.6a13.22,13.22,0,0,1-5.62,6.53A14.36,14.36,0,0,1,79.37,51.75Z"/><path class="cls-1" d="M97.28,50.69v-.76l1.06-.31a3.3,3.3,0,0,0,2-1.36,5,5,0,0,0,.61-2.28V23.37a3.15,3.15,0,0,0-.61-2.28,3.07,3.07,0,0,0-2-1.06l-1.06-.15v-.76l13.2-4.25.76.76-.3,10.17V46a3.71,3.71,0,0,0,.6,2.28,3.36,3.36,0,0,0,2,1.36l.76.16v.75h-17Z"/><path class="cls-1" d="M105.78,11.08a5.51,5.51,0,0,1-4.1-1.52A5.27,5.27,0,0,1,100,5.61a5,5,0,0,1,1.67-3.94,5.74,5.74,0,0,1,4.1-1.52,5.48,5.48,0,0,1,4.09,1.52,5.23,5.23,0,0,1,1.67,3.94,5.48,5.48,0,0,1-1.67,4A6.15,6.15,0,0,1,105.78,11.08Z"/><path class="cls-2" d="M18.36,23.37a5.48,5.48,0,0,1-4.09-1.52,5.22,5.22,0,0,1-1.67-3.94A5,5,0,0,1,14.27,14a5.73,5.73,0,0,1,4.09-1.52A5.51,5.51,0,0,1,22.46,14a5.27,5.27,0,0,1,1.67,3.95,5.46,5.46,0,0,1-5.77,5.46Z"/><path class="cls-1" d="M131,51.75c-3,0-5.46-.76-7.13-2.28s-2.58-3.94-2.58-7.43V17.3h-5v-.76l1.67-.3a9.53,9.53,0,0,0,3.79-1.52,16.06,16.06,0,0,0,3.19-2.58l5.92-6.53h.76l-.16,10.17h8.2V17.3h-8.2v26A5.39,5.39,0,0,0,132.49,47a3.53,3.53,0,0,0,2.88,1.37,5.2,5.2,0,0,0,2.73-.76,9.6,9.6,0,0,0,2.28-2.12l.76.75a10.92,10.92,0,0,1-3.95,3.95A11.49,11.49,0,0,1,131,51.75Z"/><path class="cls-1" d="M153.89,51.75a10.07,10.07,0,0,1-7-2.43c-2-1.52-2.88-4-2.88-6.83,0-2.28,1.22-4.4,3.49-6.22,2.28-2,5.92-3.34,10.93-4.25.76-.15,1.67-.3,2.58-.46a26.92,26.92,0,0,0,3-.6V25.19c0-3.34-.45-5.61-1.21-6.83a3.81,3.81,0,0,0-3.64-2,3.22,3.22,0,0,0-2.73,1.06,8.21,8.21,0,0,0-1.37,3.8L155,22c-.15,2.13-.61,3.65-1.52,4.56a4.59,4.59,0,0,1-3.34,1.51,4.15,4.15,0,0,1-4.25-4.24,6.85,6.85,0,0,1,2.13-5,11.89,11.89,0,0,1,5.46-3,28.66,28.66,0,0,1,7.44-1.06c4.25,0,7.58,1.06,9.86,3.19s3.49,5.46,3.49,10.16V44c0,2.12,1.06,3.19,3,3.19h1.51l.61.6a10,10,0,0,1-3,2.73,9.29,9.29,0,0,1-4.56.91,7.31,7.31,0,0,1-5-1.51,7.57,7.57,0,0,1-2.43-4,35.52,35.52,0,0,1-4.4,4A10.7,10.7,0,0,1,153.89,51.75Zm4.4-4.4a6.25,6.25,0,0,0,2.73-.76,23.17,23.17,0,0,0,3-2.13V32.32c-.45.16-.91.16-1.51.31s-1.07.15-1.67.3a11.34,11.34,0,0,0-5.32,2.88,7.38,7.38,0,0,0-2,5.47,6.12,6.12,0,0,0,1.37,4.4A5.06,5.06,0,0,0,158.29,47.35Z"/><path class="cls-1" d="M181.05,50.69v-.76l.91-.31A3.6,3.6,0,0,0,184.54,46V7.44a3,3,0,0,0-.61-2.13,3.52,3.52,0,0,0-2-1.06l-.91-.15V3l13.2-3,.91.61-.3,10.16V46.13a3.39,3.39,0,0,0,.61,2.28,3.85,3.85,0,0,0,2,1.37l.91.15v.76Z"/><path class="cls-1" d="M5.31,51.54A27.74,27.74,0,0,0,0,54.63V18.16a30.27,30.27,0,0,0,5-2.44,44.48,44.48,0,0,0,5.15-3.58l.32.33V49.1S8.28,50.07,5.31,51.54Z"/></g></g></svg>